<svg width="347" height="53" viewBox="0 0 347 53" fill="none" xmlns="http://www.w3.org/2000/svg">
<rect width="347" height="53" fill="#07FF00"/>
<path d="M18.276 39V13.8H40.488V39H34.728V18.444H24.036V39H18.276ZM47.0338 39V13.8H60.7138C65.6098 13.8 68.7418 17.22 68.7418 22.476C68.7418 27.66 65.5018 31.008 60.3178 31.008H52.7938V39H47.0338ZM59.2378 18.336H52.7938V26.472H59.2378C61.5778 26.472 62.8378 25.032 62.8378 22.476C62.8378 19.776 61.5778 18.336 59.2378 18.336ZM84.3158 39.396C75.9998 39.396 71.5718 34.968 71.5718 26.4C71.5718 17.868 75.9998 13.404 84.3158 13.404C92.6318 13.404 97.0598 17.868 97.0598 26.4C97.0598 34.968 92.6318 39.396 84.3158 39.396ZM84.3158 34.788C88.9238 34.788 91.1558 32.124 91.1558 26.4C91.1558 20.676 88.9238 18.012 84.3158 18.012C79.7078 18.012 77.5118 20.676 77.5118 26.4C77.5118 32.124 79.7078 34.788 84.3158 34.788ZM98.8209 45.48V34.356H101.089C103.213 31.908 103.717 29.028 103.753 18.984L103.789 13.8H122.437V34.356H125.389V45.48H120.061V39H104.149V45.48H98.8209ZM108.037 30.72C107.677 32.124 107.209 33.24 106.489 34.356H117.073V18.444H108.937V18.948C108.901 24.96 108.721 28.272 108.037 30.72ZM140.882 39.396C132.566 39.396 128.138 34.968 128.138 26.4C128.138 17.868 132.566 13.404 140.882 13.404C149.198 13.404 153.626 17.868 153.626 26.4C153.626 34.968 149.198 39.396 140.882 39.396ZM140.882 34.788C145.49 34.788 147.722 32.124 147.722 26.4C147.722 20.676 145.49 18.012 140.882 18.012C136.274 18.012 134.078 20.676 134.078 26.4C134.078 32.124 136.274 34.788 140.882 34.788ZM155.669 34.248H156.893C159.161 34.248 159.953 32.556 160.061 24.888L160.241 13.8H179.573V39H173.921V18.444H165.713L165.641 24.276C165.569 36.696 163.085 39.144 157.793 39.144H155.669V34.248ZM198.172 39V28.452H194.356L189.172 39H183.124L189.712 25.716L183.34 13.8H189.424L194.464 23.7H198.172V13.8H203.788V23.7H207.424L212.5 13.8H218.692L212.392 25.716L218.944 39H212.68L207.568 28.452H203.788V39H198.172ZM239.743 39V19.776L229.843 39H222.499V13.8H228.223V33.096L238.123 13.8H245.467V39H239.743ZM257.466 39V18.444H249.186V13.8H271.506V18.444H263.226V39H257.466ZM275.198 39V13.8H280.958V22.008H288.194C293.162 22.008 296.042 25.14 296.042 30.576C296.042 35.904 293.162 39 288.194 39H275.198ZM287.258 26.652H280.958V34.356H287.258C289.346 34.356 290.426 33.06 290.426 30.54C290.426 27.984 289.346 26.652 287.258 26.652ZM316.314 18.084L319.158 15.24L330.21 26.256L319.158 37.272L316.314 34.428L321.714 29.028V28.452H306.918V24.06H321.786V23.556L316.314 18.084Z" fill="black"/>
</svg>
